<?xml version="1.0" encoding="utf-8"?>
<!-- Generator: Adobe Illustrator 16.0.0, SVG Export Plug-In . SVG Version: 6.00 Build 0)  -->
<!DOCTYPE svg PUBLIC "-//W3C//DTD SVG 1.1//EN" "http://www.w3.org/Graphics/SVG/1.1/DTD/svg11.dtd">
<svg version="1.1" id="Layer_1" xmlns="http://www.w3.org/2000/svg" xmlns:xlink="http://www.w3.org/1999/xlink" x="0px" y="0px"
	 width="512px" height="512px" viewBox="0 0 512 512" enable-background="new 0 0 512 512" xml:space="preserve">
<g id="_x31_3_deadline_x2C__time_x2C__clock_x2C__fire_x2C__business_x2C__work_x2C__calendar">
	<g>
		<g>
			<rect x="4.171" y="363.926" fill="#CCD1D9" width="367.75" height="79.946"/>
		</g>
	</g>
	<g>
		<g>
			<polygon fill="#E6E9ED" points="371.922,427.883 68.124,427.883 4.171,363.926 4.171,156.068 371.922,156.068 			"/>
		</g>
	</g>
	<g>
		<g>
			<rect x="4.171" y="84.117" fill="#ED5564" width="367.75" height="71.951"/>
		</g>
	</g>
	<g>
		<g>
			<path fill="#E6E9ED" d="M68.127,52.139c-4.415,0-7.994,3.58-7.994,7.995v47.967c0,4.415,3.58,7.994,7.994,7.994
				c4.415,0,7.995-3.579,7.995-7.994V60.133C76.123,55.718,72.542,52.139,68.127,52.139z"/>
		</g>
	</g>
	<g opacity="0.2">
		<g>
			<path fill="#3A3847" d="M68.127,108.101c-4.415,0-7.994-3.58-7.994-7.995v7.995c0,4.415,3.58,7.994,7.994,7.994
				c4.415,0,7.995-3.579,7.995-7.994v-7.995C76.123,104.521,72.542,108.101,68.127,108.101z"/>
		</g>
	</g>
	<g>
		<g>
			<path fill="#E6E9ED" d="M148.073,52.139c-4.415,0-7.995,3.58-7.995,7.995v47.967c0,4.415,3.58,7.994,7.995,7.994
				c4.415,0,7.995-3.579,7.995-7.994V60.133C156.068,55.718,152.488,52.139,148.073,52.139z"/>
		</g>
	</g>
	<g>
		<g>
			<path fill="#E6E9ED" d="M228.019,52.139c-4.415,0-7.995,3.58-7.995,7.995v47.967c0,4.415,3.58,7.994,7.995,7.994
				s7.994-3.579,7.994-7.994V60.133C236.013,55.718,232.434,52.139,228.019,52.139z"/>
		</g>
	</g>
	<g>
		<g>
			<path fill="#E6E9ED" d="M307.965,52.139c-4.42,0-7.994,3.58-7.994,7.995v47.967c0,4.415,3.574,7.994,7.994,7.994
				c4.418,0,7.994-3.579,7.994-7.994V60.133C315.959,55.718,312.383,52.139,307.965,52.139z"/>
		</g>
	</g>
	<g opacity="0.2">
		<g>
			<path fill="#3A3847" d="M148.073,108.101c-4.415,0-7.995-3.58-7.995-7.995v7.995c0,4.415,3.58,7.994,7.995,7.994
				c4.415,0,7.995-3.579,7.995-7.994v-7.995C156.068,104.521,152.488,108.101,148.073,108.101z"/>
		</g>
	</g>
	<g opacity="0.2">
		<g>
			<path fill="#3A3847" d="M228.019,108.101c-4.415,0-7.995-3.58-7.995-7.995v7.995c0,4.415,3.58,7.994,7.995,7.994
				s7.994-3.579,7.994-7.994v-7.995C236.013,104.521,232.434,108.101,228.019,108.101z"/>
		</g>
	</g>
	<g opacity="0.2">
		<g>
			<path fill="#3A3847" d="M307.965,108.101c-4.42,0-7.994-3.58-7.994-7.995v7.995c0,4.415,3.574,7.994,7.994,7.994
				c4.418,0,7.994-3.579,7.994-7.994v-7.995C315.959,104.521,312.383,108.101,307.965,108.101z"/>
		</g>
	</g>
	<g>
		<g>
			<path fill="#FFFFFF" d="M307.965,60.133c4.418,0,7.994,3.58,7.994,7.995v-7.995c0-4.415-3.576-7.995-7.994-7.995
				c-4.412,0-7.994,3.58-7.994,7.995v7.995C299.971,63.713,303.553,60.133,307.965,60.133z"/>
		</g>
	</g>
	<g>
		<g>
			<path fill="#FFFFFF" d="M228.019,60.133c4.415,0,7.994,3.58,7.994,7.995v-7.995c0-4.415-3.579-7.995-7.994-7.995
				s-7.995,3.58-7.995,7.995v7.995C220.024,63.713,223.604,60.133,228.019,60.133z"/>
		</g>
	</g>
	<g>
		<g>
			<path fill="#FFFFFF" d="M148.073,60.133c4.415,0,7.995,3.58,7.995,7.995v-7.995c0-4.415-3.58-7.995-7.995-7.995
				c-4.415,0-7.995,3.58-7.995,7.995v7.995C140.079,63.713,143.659,60.133,148.073,60.133z"/>
		</g>
	</g>
	<g>
		<g>
			<path fill="#FFFFFF" d="M68.127,60.133c4.419,0,7.995,3.58,7.995,7.995v-7.995c0-4.415-3.576-7.995-7.995-7.995
				c-4.418,0-7.994,3.58-7.994,7.995v7.995C60.133,63.713,63.709,60.133,68.127,60.133z"/>
		</g>
	</g>
	<g>
		<g>
			<polygon fill="#FFFFFF" points="68.127,427.883 68.127,363.926 4.171,363.926 			"/>
		</g>
	</g>
	<g>
		<g>
			<rect x="4.171" y="443.872" fill="#CCD1D9" width="379.741" height="15.989"/>
		</g>
	</g>
	<g>
		<g>
			<rect x="172.057" y="180.052" fill="#FFCE54" width="31.978" height="31.978"/>
		</g>
	</g>
	<g>
		<g>
			<rect x="220.024" y="180.052" fill="#FFCE54" width="31.978" height="31.978"/>
		</g>
	</g>
	<g>
		<g>
			<rect x="267.992" y="180.052" fill="#FFCE54" width="31.979" height="31.978"/>
		</g>
	</g>
	<g>
		<g>
			<rect x="28.155" y="228.019" fill="#FFCE54" width="31.979" height="31.979"/>
		</g>
	</g>
	<g>
		<g>
			<rect x="76.123" y="228.019" fill="#FFCE54" width="31.978" height="31.979"/>
		</g>
	</g>
	<g>
		<g>
			<rect x="124.089" y="228.019" fill="#FFCE54" width="31.979" height="31.979"/>
		</g>
	</g>
	<g>
		<g>
			<rect x="172.057" y="228.019" fill="#FFCE54" width="31.978" height="31.979"/>
		</g>
	</g>
	<g>
		<g>
			<rect x="220.024" y="228.019" fill="#FFCE54" width="31.978" height="31.979"/>
		</g>
	</g>
	<g>
		<g>
			<rect x="267.992" y="228.019" fill="#FFCE54" width="31.979" height="31.979"/>
		</g>
	</g>
	<g>
		<g>
			<rect x="28.487" y="275.986" fill="#FFCE54" width="31.979" height="31.979"/>
		</g>
	</g>
	<g>
		<g>
			<rect x="28.155" y="323.953" fill="#FFCE54" width="31.979" height="31.979"/>
		</g>
	</g>
	<g>
		<g>
			<rect x="76.123" y="323.953" fill="#FFCE54" width="31.978" height="31.979"/>
		</g>
	</g>
	<g>
		<g>
			<rect x="124.421" y="323.953" fill="#FFCE54" width="31.979" height="31.979"/>
		</g>
	</g>
	<g>
		<g>
			<rect x="172.389" y="323.953" fill="#FFCE54" width="31.978" height="31.979"/>
		</g>
	</g>
	<g>
		<g>
			<rect x="220.356" y="323.953" fill="#FFCE54" width="31.979" height="31.979"/>
		</g>
	</g>
	<g>
		<g>
			<rect x="220.356" y="371.921" fill="#FFCE54" width="31.979" height="31.979"/>
		</g>
	</g>
	<g>
		<g>
			<rect x="172.389" y="371.921" fill="#FFCE54" width="31.978" height="31.979"/>
		</g>
	</g>
	<g>
		<g>
			<rect x="124.089" y="371.921" fill="#FFCE54" width="31.979" height="31.979"/>
		</g>
	</g>
	<g>
		<g>
			<rect x="76.123" y="371.921" fill="#FFCE54" width="31.978" height="31.979"/>
		</g>
	</g>
	<g>
		<g>
			<rect x="76.454" y="275.986" fill="#FFCE54" width="31.978" height="31.979"/>
		</g>
	</g>
	<g>
		<g>
			<rect x="124.421" y="275.986" fill="#FFCE54" width="31.979" height="31.979"/>
		</g>
	</g>
	<g opacity="0.2">
		<g>
			<rect x="363.926" y="84.117" fill="#3A3847" width="7.996" height="71.951"/>
		</g>
	</g>
	<g opacity="0.2">
		<g>
			<rect x="4.171" y="156.068" fill="#3A3847" width="350.76" height="7.995"/>
		</g>
	</g>
	<g>
		<g>
			<rect x="172.389" y="275.986" fill="#FFCE54" width="31.978" height="31.979"/>
		</g>
	</g>
	<g>
		<g>
			<rect x="220.356" y="275.986" fill="#FFCE54" width="31.979" height="31.979"/>
		</g>
	</g>
	<g>
		<g>
			<g>
				<path fill="#FC6E51" d="M443.871,180.052c0,0,63.957,68.273,63.957,155.894c0,68.516-55.4,123.916-123.916,123.916
					s-123.914-55.4-123.914-123.916c0-135.985,135.906-211.855,135.906-211.855s-18.307,45.57,0,63.956
					C414.291,206.354,443.871,180.052,443.871,180.052z"/>
			</g>
		</g>
	</g>
	<g opacity="0.2">
		<g>
			<g>
				<path fill="#3A3847" d="M443.871,180.052c0,0-3.98,3.528-9.914,7.097c15.957,19.596,57.883,77.838,57.883,148.797
					c0,65.814-51.16,119.38-115.922,123.51c2.654,0.172,5.293,0.406,7.994,0.406c68.516,0,123.916-55.4,123.916-123.916
					C507.828,248.325,443.871,180.052,443.871,180.052z"/>
			</g>
		</g>
	</g>
	<g opacity="0.3">
		<g>
			<g>
				<path fill="#FFFFFF" d="M275.986,335.945c0-102.902,77.791-171.348,115.656-198.576c2.1-7.827,4.262-13.28,4.262-13.28
					s-135.906,75.87-135.906,211.855c0,68.516,55.398,123.916,123.914,123.916c2.701,0,5.342-0.234,7.996-0.406
					C327.146,455.325,275.986,401.76,275.986,335.945z"/>
			</g>
		</g>
	</g>
	<g>
		<g>
			<path fill="#FFCE54" d="M491.84,335.945c0,59.607-48.318,107.927-107.928,107.927c-59.607,0-107.926-48.319-107.926-107.927
				s48.318-107.927,107.926-107.927C443.521,228.019,491.84,276.338,491.84,335.945z"/>
		</g>
	</g>
	<g opacity="0.2">
		<g>
			<path fill="#3A3847" d="M291.975,335.945c0-56.906,44.072-103.418,99.934-107.524c-2.646-0.191-5.295-0.402-7.996-0.402
				c-59.607,0-107.926,48.319-107.926,107.927s48.318,107.927,107.926,107.927c2.701,0,5.35-0.211,7.996-0.406
				C336.047,439.359,291.975,392.852,291.975,335.945z"/>
		</g>
	</g>
	<g opacity="0.5">
		<g>
			<path fill="#FFFFFF" d="M475.85,335.945c0,56.906-44.07,103.414-99.932,107.521c2.646,0.195,5.293,0.406,7.994,0.406
				c59.609,0,107.928-48.319,107.928-107.927s-48.318-107.927-107.928-107.927c-2.701,0-5.348,0.211-7.994,0.406
				C431.779,232.531,475.85,279.039,475.85,335.945z"/>
		</g>
	</g>
	<g opacity="0.2">
		<g>
			<rect x="4.171" y="355.932" fill="#3A3847" width="71.951" height="7.994"/>
		</g>
	</g>
	<g opacity="0.2">
		<g>
			<rect x="68.127" y="363.926" fill="#3A3847" width="7.995" height="63.957"/>
		</g>
	</g>
	<g opacity="0.3">
		<g>
			<rect x="4.171" y="84.117" fill="#FFFFFF" width="7.994" height="71.951"/>
		</g>
	</g>
	<g>
		<g>
			<rect x="4.171" y="164.062" fill="#FFFFFF" width="7.994" height="191.869"/>
		</g>
	</g>
	<g>
		<g>
			<g>
				<path fill="#3A3847" d="M275.986,431.88H68.127c-2.209,0-3.997-1.788-3.997-3.997s1.788-3.997,3.997-3.997h207.859
					c2.209,0,3.998,1.788,3.998,3.997S278.195,431.88,275.986,431.88z"/>
			</g>
		</g>
		<g>
			<g>
				<path fill="#3A3847" d="M4.171,367.924c-2.209,0-3.997-1.788-3.997-3.998V84.117c0-2.21,1.788-3.998,3.997-3.998
					c2.209,0,3.997,1.788,3.997,3.998v279.809C8.168,366.136,6.38,367.924,4.171,367.924z"/>
			</g>
		</g>
		<g>
			<g>
				<path fill="#3A3847" d="M44.144,88.114H4.171c-2.209,0-3.997-1.788-3.997-3.997c0-2.21,1.788-3.998,3.997-3.998h39.973
					c2.209,0,3.997,1.788,3.997,3.998C48.141,86.326,46.354,88.114,44.144,88.114z"/>
			</g>
		</g>
		<g>
			<g>
				<path fill="#3A3847" d="M371.922,88.114h-39.975c-2.209,0-3.996-1.788-3.996-3.997c0-2.21,1.787-3.998,3.996-3.998h39.975
					c2.209,0,3.996,1.788,3.996,3.998C375.918,86.326,374.131,88.114,371.922,88.114z"/>
			</g>
		</g>
		<g>
			<g>
				<path fill="#3A3847" d="M371.922,120.092c-2.211,0-3.998-1.788-3.998-3.998V84.117c0-2.21,1.787-3.998,3.998-3.998
					c2.209,0,3.996,1.788,3.996,3.998v31.978C375.918,118.305,374.131,120.092,371.922,120.092z"/>
			</g>
		</g>
		<g>
			<g>
				<path fill="#3A3847" d="M323.953,160.065H4.171c-2.209,0-3.997-1.788-3.997-3.998s1.788-3.998,3.997-3.998h319.782
					c2.211,0,3.998,1.788,3.998,3.998S326.164,160.065,323.953,160.065z"/>
			</g>
		</g>
		<g>
			<g>
				<path fill="#3A3847" d="M204.035,216.027h-31.978c-2.209,0-3.997-1.788-3.997-3.998v-31.978c0-2.21,1.788-3.998,3.997-3.998
					h31.978c2.209,0,3.998,1.788,3.998,3.998v31.978C208.033,214.239,206.245,216.027,204.035,216.027z M176.054,208.032h23.983
					v-23.983h-23.983V208.032z"/>
			</g>
		</g>
		<g>
			<g>
				<path fill="#3A3847" d="M252.006,216.027h-31.982c-2.209,0-3.998-1.788-3.998-3.998v-31.978c0-2.21,1.788-3.998,3.998-3.998
					h31.982c2.209,0,3.997,1.788,3.997,3.998v31.978C256.003,214.239,254.216,216.027,252.006,216.027z M224.021,208.032h23.988
					v-23.983h-23.988V208.032z"/>
			</g>
		</g>
		<g>
			<g>
				<path fill="#3A3847" d="M267.992,216.027c-2.209,0-3.998-1.788-3.998-3.998v-31.978c0-2.21,1.789-3.998,3.998-3.998h31.979
					c2.209,0,3.996,1.788,3.996,3.998c0,2.209-1.787,3.997-3.996,3.997h-27.982v27.981
					C271.988,214.239,270.201,216.027,267.992,216.027z"/>
			</g>
		</g>
		<g>
			<g>
				<path fill="#3A3847" d="M60.133,263.994H28.155c-2.209,0-3.997-1.787-3.997-3.997v-31.979c0-2.209,1.788-3.997,3.997-3.997
					h31.979c2.209,0,3.997,1.788,3.997,3.997v31.979C64.13,262.207,62.342,263.994,60.133,263.994z M32.152,256h23.984v-23.984
					H32.152V256z"/>
			</g>
		</g>
		<g>
			<g>
				<path fill="#3A3847" d="M108.101,263.994H76.123c-2.21,0-3.998-1.787-3.998-3.997v-31.979c0-2.209,1.788-3.997,3.998-3.997
					h31.978c2.209,0,3.998,1.788,3.998,3.997v31.979C112.098,262.207,110.31,263.994,108.101,263.994z M80.12,256h23.983v-23.984
					H80.12V256z"/>
			</g>
		</g>
		<g>
			<g>
				<path fill="#3A3847" d="M156.068,263.994h-31.979c-2.209,0-3.997-1.787-3.997-3.997v-31.979c0-2.209,1.788-3.997,3.997-3.997
					h31.979c2.209,0,3.997,1.788,3.997,3.997v31.979C160.065,262.207,158.277,263.994,156.068,263.994z M128.087,256h23.984v-23.984
					h-23.984V256z"/>
			</g>
		</g>
		<g>
			<g>
				<path fill="#3A3847" d="M204.035,263.994h-31.978c-2.209,0-3.997-1.787-3.997-3.997v-31.979c0-2.209,1.788-3.997,3.997-3.997
					h31.978c2.209,0,3.998,1.788,3.998,3.997v31.979C208.033,262.207,206.245,263.994,204.035,263.994z M176.054,256h23.983v-23.984
					h-23.983V256z"/>
			</g>
		</g>
		<g>
			<g>
				<path fill="#3A3847" d="M252.006,263.994h-31.982c-2.209,0-3.998-1.787-3.998-3.997v-31.979c0-2.209,1.788-3.997,3.998-3.997
					h31.982c2.209,0,3.997,1.788,3.997,3.997v31.979C256.003,262.207,254.216,263.994,252.006,263.994z M224.021,256h23.988v-23.984
					h-23.988V256z"/>
			</g>
		</g>
		<g>
			<g>
				<path fill="#3A3847" d="M267.992,240.011c-2.209,0-3.998-1.788-3.998-3.997v-7.995c0-2.209,1.789-3.997,3.998-3.997
					s3.996,1.788,3.996,3.997v7.995C271.988,238.223,270.201,240.011,267.992,240.011z"/>
			</g>
		</g>
		<g>
			<g>
				<path fill="#3A3847" d="M60.133,311.962H28.155c-2.209,0-3.997-1.788-3.997-3.997v-31.979c0-2.209,1.788-3.997,3.997-3.997
					h31.979c2.209,0,3.997,1.788,3.997,3.997v31.979C64.13,310.174,62.342,311.962,60.133,311.962z M32.152,303.967h23.984v-23.983
					H32.152V303.967z"/>
			</g>
		</g>
		<g>
			<g>
				<path fill="#3A3847" d="M108.101,311.962H76.123c-2.21,0-3.998-1.788-3.998-3.997v-31.979c0-2.209,1.788-3.997,3.998-3.997
					h31.978c2.209,0,3.998,1.788,3.998,3.997v31.979C112.098,310.174,110.31,311.962,108.101,311.962z M80.12,303.967h23.983
					v-23.983H80.12V303.967z"/>
			</g>
		</g>
		<g>
			<g>
				<path fill="#3A3847" d="M156.068,311.962h-31.979c-2.209,0-3.997-1.788-3.997-3.997v-31.979c0-2.209,1.788-3.997,3.997-3.997
					h31.979c2.209,0,3.997,1.788,3.997,3.997v31.979C160.065,310.174,158.277,311.962,156.068,311.962z M128.087,303.967h23.984
					v-23.983h-23.984V303.967z"/>
			</g>
		</g>
		<g>
			<g>
				<path fill="#3A3847" d="M204.035,311.962h-31.978c-2.209,0-3.997-1.788-3.997-3.997v-31.979c0-2.209,1.788-3.997,3.997-3.997
					h31.978c2.209,0,3.998,1.788,3.998,3.997v31.979C208.033,310.174,206.245,311.962,204.035,311.962z M176.054,303.967h23.983
					v-23.983h-23.983V303.967z"/>
			</g>
		</g>
		<g>
			<g>
				<path fill="#3A3847" d="M220.024,311.962c-2.209,0-3.998-1.788-3.998-3.997v-31.979c0-2.209,1.788-3.997,3.998-3.997h31.982
					c2.209,0,3.997,1.788,3.997,3.997s-1.788,3.997-3.997,3.997h-27.985v27.981C224.021,310.174,222.234,311.962,220.024,311.962z"
					/>
			</g>
		</g>
		<g>
			<g>
				<path fill="#3A3847" d="M156.068,359.929h-31.979c-2.209,0-3.997-1.788-3.997-3.997v-31.979c0-2.209,1.788-3.997,3.997-3.997
					h31.979c2.209,0,3.997,1.788,3.997,3.997v31.979C160.065,358.141,158.277,359.929,156.068,359.929z M128.087,351.935h23.984
					v-23.983h-23.984V351.935z"/>
			</g>
		</g>
		<g>
			<g>
				<path fill="#3A3847" d="M204.035,359.929h-31.978c-2.209,0-3.997-1.788-3.997-3.997v-31.979c0-2.209,1.788-3.997,3.997-3.997
					h31.978c2.209,0,3.998,1.788,3.998,3.997v31.979C208.033,358.141,206.245,359.929,204.035,359.929z M176.054,351.935h23.983
					v-23.983h-23.983V351.935z"/>
			</g>
		</g>
		<g>
			<g>
				<path fill="#3A3847" d="M244.012,359.929h-23.988c-2.209,0-3.998-1.788-3.998-3.997v-31.979c0-2.209,1.788-3.997,3.998-3.997
					h23.988c2.209,0,3.997,1.788,3.997,3.997c0,2.21-1.788,3.998-3.997,3.998h-19.991v23.983h19.991
					c2.209,0,3.997,1.788,3.997,3.997S246.221,359.929,244.012,359.929z"/>
			</g>
		</g>
		<g>
			<g>
				<path fill="#3A3847" d="M156.068,407.896h-31.979c-2.209,0-3.997-1.788-3.997-3.997v-31.979c0-2.21,1.788-3.997,3.997-3.997
					h31.979c2.209,0,3.997,1.787,3.997,3.997v31.979C160.065,406.108,158.277,407.896,156.068,407.896z M128.087,399.902h23.984
					v-23.984h-23.984V399.902z"/>
			</g>
		</g>
		<g>
			<g>
				<path fill="#3A3847" d="M204.035,407.896h-31.978c-2.209,0-3.997-1.788-3.997-3.997v-31.979c0-2.21,1.788-3.997,3.997-3.997
					h31.978c2.209,0,3.998,1.787,3.998,3.997v31.979C208.033,406.108,206.245,407.896,204.035,407.896z M176.054,399.902h23.983
					v-23.984h-23.983V399.902z"/>
			</g>
		</g>
		<g>
			<g>
				<path fill="#3A3847" d="M252.006,407.896h-31.982c-2.209,0-3.998-1.788-3.998-3.997v-31.979c0-2.21,1.788-3.997,3.998-3.997
					s3.997,1.787,3.997,3.997v27.981h27.985c2.209,0,3.997,1.787,3.997,3.997C256.003,406.108,254.216,407.896,252.006,407.896z"/>
			</g>
		</g>
		<g>
			<g>
				<path fill="#3A3847" d="M291.975,447.869H4.171c-2.209,0-3.997-1.788-3.997-3.997c0-2.21,1.788-3.997,3.997-3.997h287.803
					c2.211,0,3.998,1.787,3.998,3.997C295.973,446.081,294.186,447.869,291.975,447.869z"/>
			</g>
		</g>
		<g>
			<g>
				<path fill="#3A3847" d="M315.959,463.858H4.171c-2.209,0-3.997-1.788-3.997-3.997c0-2.21,1.788-3.998,3.997-3.998h311.788
					c2.209,0,3.998,1.788,3.998,3.998C319.957,462.07,318.168,463.858,315.959,463.858z"/>
			</g>
		</g>
		<g>
			<g>
				<path fill="#3A3847" d="M68.127,431.88c-1.022,0-2.045-0.39-2.826-1.171L1.345,366.752c-1.562-1.561-1.562-4.09,0-5.652
					c1.562-1.561,4.091-1.561,5.652,0l63.956,63.957c1.562,1.562,1.562,4.091,0,5.652C70.173,431.49,69.15,431.88,68.127,431.88z"/>
			</g>
		</g>
		<g>
			<g>
				<path fill="#3A3847" d="M68.127,431.88c-2.209,0-3.997-1.788-3.997-3.997v-63.957c0-2.209,1.788-3.997,3.997-3.997
					c2.21,0,3.998,1.788,3.998,3.997v63.957C72.125,430.092,70.337,431.88,68.127,431.88z"/>
			</g>
		</g>
		<g>
			<g>
				<path fill="#3A3847" d="M68.127,367.924H4.171c-2.209,0-3.997-1.788-3.997-3.998c0-2.209,1.788-3.997,3.997-3.997h63.956
					c2.21,0,3.998,1.788,3.998,3.997C72.125,366.136,70.337,367.924,68.127,367.924z"/>
			</g>
		</g>
		<g>
			<g>
				<path fill="#3A3847" d="M4.171,447.869c-2.209,0-3.997-1.788-3.997-3.997v-57.625c0-2.21,1.788-3.997,3.997-3.997
					c2.209,0,3.997,1.787,3.997,3.997v57.625C8.168,446.081,6.38,447.869,4.171,447.869z"/>
			</g>
		</g>
		<g>
			<g>
				<path fill="#3A3847" d="M60.133,327.951H28.155c-2.209,0-3.997-1.788-3.997-3.998c0-2.209,1.788-3.997,3.997-3.997h31.979
					c2.209,0,3.997,1.788,3.997,3.997C64.13,326.163,62.342,327.951,60.133,327.951z"/>
			</g>
		</g>
		<g>
			<g>
				<path fill="#3A3847" d="M60.133,351.935c-2.209,0-3.997-1.788-3.997-3.997v-23.984c0-2.209,1.788-3.997,3.997-3.997
					c2.209,0,3.997,1.788,3.997,3.997v23.984C64.13,350.146,62.342,351.935,60.133,351.935z"/>
			</g>
		</g>
		<g>
			<g>
				<path fill="#3A3847" d="M28.155,351.935c-2.209,0-3.997-1.788-3.997-3.997v-23.984c0-2.209,1.788-3.997,3.997-3.997
					c2.21,0,3.998,1.788,3.998,3.997v23.984C32.152,350.146,30.365,351.935,28.155,351.935z"/>
			</g>
		</g>
		<g>
			<g>
				<path fill="#3A3847" d="M76.123,351.935c-2.21,0-3.998-1.788-3.998-3.997v-23.984c0-2.209,1.788-3.997,3.998-3.997
					c2.209,0,3.997,1.788,3.997,3.997v23.984C80.12,350.146,78.332,351.935,76.123,351.935z"/>
			</g>
		</g>
		<g>
			<g>
				<path fill="#3A3847" d="M108.101,327.951H76.123c-2.21,0-3.998-1.788-3.998-3.998c0-2.209,1.788-3.997,3.998-3.997h31.978
					c2.209,0,3.998,1.788,3.998,3.997C112.098,326.163,110.31,327.951,108.101,327.951z"/>
			</g>
		</g>
		<g>
			<g>
				<path fill="#3A3847" d="M108.101,359.929c-2.209,0-3.998-1.788-3.998-3.997v-31.979c0-2.209,1.788-3.997,3.998-3.997
					s3.998,1.788,3.998,3.997v31.979C112.098,358.141,110.31,359.929,108.101,359.929z"/>
			</g>
		</g>
		<g>
			<g>
				<path fill="#3A3847" d="M108.101,359.929H84.117c-2.209,0-3.997-1.788-3.997-3.997s1.788-3.997,3.997-3.997h23.984
					c2.209,0,3.998,1.788,3.998,3.997S110.31,359.929,108.101,359.929z"/>
			</g>
		</g>
		<g>
			<g>
				<path fill="#3A3847" d="M108.101,407.896c-2.209,0-3.998-1.788-3.998-3.997v-31.979c0-2.21,1.788-3.997,3.998-3.997
					s3.998,1.787,3.998,3.997v31.979C112.098,406.108,110.31,407.896,108.101,407.896z"/>
			</g>
		</g>
		<g>
			<g>
				<path fill="#3A3847" d="M108.101,407.896H84.117c-2.209,0-3.997-1.788-3.997-3.997c0-2.21,1.788-3.997,3.997-3.997h23.984
					c2.209,0,3.998,1.787,3.998,3.997C112.098,406.108,110.31,407.896,108.101,407.896z"/>
			</g>
		</g>
		<g>
			<g>
				<path fill="#3A3847" d="M108.101,375.918H84.117c-2.209,0-3.997-1.787-3.997-3.997s1.788-3.997,3.997-3.997h23.984
					c2.209,0,3.998,1.787,3.998,3.997S110.31,375.918,108.101,375.918z"/>
			</g>
		</g>
		<g>
			<g>
				<path fill="#3A3847" d="M56.136,144.076H32.152c-2.209,0-3.998-1.788-3.998-3.997c0-2.21,1.788-3.998,3.998-3.998h23.984
					c2.209,0,3.997,1.788,3.997,3.998C60.133,142.288,58.345,144.076,56.136,144.076z"/>
			</g>
		</g>
		<g>
			<g>
				<path fill="#3A3847" d="M104.103,144.076H80.12c-2.209,0-3.997-1.788-3.997-3.997c0-2.21,1.788-3.998,3.997-3.998h23.983
					c2.21,0,3.998,1.788,3.998,3.998C108.101,142.288,106.313,144.076,104.103,144.076z"/>
			</g>
		</g>
		<g>
			<g>
				<path fill="#3A3847" d="M152.071,144.076h-23.984c-2.209,0-3.998-1.788-3.998-3.997c0-2.21,1.788-3.998,3.998-3.998h23.984
					c2.209,0,3.997,1.788,3.997,3.998C156.068,142.288,154.28,144.076,152.071,144.076z"/>
			</g>
		</g>
		<g>
			<g>
				<path fill="#3A3847" d="M200.038,144.076h-23.983c-2.209,0-3.997-1.788-3.997-3.997c0-2.21,1.788-3.998,3.997-3.998h23.983
					c2.21,0,3.998,1.788,3.998,3.998C204.035,142.288,202.248,144.076,200.038,144.076z"/>
			</g>
		</g>
		<g>
			<g>
				<path fill="#3A3847" d="M248.009,144.076h-23.984c-2.209,0-3.997-1.788-3.997-3.997c0-2.21,1.788-3.998,3.997-3.998h23.984
					c2.209,0,3.997,1.788,3.997,3.998C252.006,142.288,250.218,144.076,248.009,144.076z"/>
			</g>
		</g>
		<g>
			<g>
				<path fill="#3A3847" d="M295.973,144.076h-23.984c-2.209,0-3.996-1.788-3.996-3.997c0-2.21,1.787-3.998,3.996-3.998h23.984
					c2.209,0,3.998,1.788,3.998,3.998C299.971,142.288,298.182,144.076,295.973,144.076z"/>
			</g>
		</g>
		<g>
			<g>
				<path fill="#3A3847" d="M343.939,144.076h-23.982c-2.211,0-3.998-1.788-3.998-3.997c0-2.21,1.787-3.998,3.998-3.998h23.982
					c2.211,0,3.998,1.788,3.998,3.998C347.938,142.288,346.15,144.076,343.939,144.076z"/>
			</g>
		</g>
		<g>
			<g>
				<path fill="#3A3847" d="M68.127,120.092c-6.612,0-11.991-5.379-11.991-11.992V60.133c0-6.613,5.379-11.992,11.991-11.992
					c6.613,0,11.992,5.379,11.992,11.992v47.967C80.12,114.713,74.741,120.092,68.127,120.092z M68.127,56.136
					c-2.205,0-3.997,1.792-3.997,3.998v47.967c0,2.206,1.792,3.997,3.997,3.997c2.206,0,3.998-1.792,3.998-3.997V60.133
					C72.125,57.928,70.333,56.136,68.127,56.136z"/>
			</g>
		</g>
		<g>
			<g>
				<path fill="#3A3847" d="M148.073,120.092c-6.613,0-11.992-5.379-11.992-11.992V60.133c0-6.613,5.379-11.992,11.992-11.992
					s11.992,5.379,11.992,11.992v47.967C160.065,114.713,154.686,120.092,148.073,120.092z M148.073,56.136
					c-2.206,0-3.998,1.792-3.998,3.998v47.967c0,2.206,1.792,3.997,3.998,3.997s3.998-1.792,3.998-3.997V60.133
					C152.071,57.928,150.279,56.136,148.073,56.136z"/>
			</g>
		</g>
		<g>
			<g>
				<path fill="#3A3847" d="M228.023,120.092c-6.613,0-11.996-5.379-11.996-11.992V60.133c0-6.613,5.383-11.992,11.996-11.992
					c6.612,0,11.992,5.379,11.992,11.992v47.967C240.015,114.713,234.635,120.092,228.023,120.092z M228.023,56.136
					c-2.206,0-4.001,1.792-4.001,3.998v47.967c0,2.206,1.795,3.997,4.001,3.997c2.205,0,3.997-1.792,3.997-3.997V60.133
					C232.02,57.928,230.228,56.136,228.023,56.136z"/>
			</g>
		</g>
		<g>
			<g>
				<path fill="#3A3847" d="M307.965,120.092c-6.613,0-11.992-5.379-11.992-11.992V60.133c0-6.613,5.379-11.992,11.992-11.992
					s11.992,5.379,11.992,11.992v47.967C319.957,114.713,314.578,120.092,307.965,120.092z M307.965,56.136
					c-2.201,0-3.998,1.792-3.998,3.998v47.967c0,2.206,1.797,3.997,3.998,3.997s3.996-1.792,3.996-3.997V60.133
					C311.961,57.928,310.166,56.136,307.965,56.136z"/>
			</g>
		</g>
		<g>
			<g>
				<path fill="#3A3847" d="M124.089,88.114H92.111c-2.209,0-3.998-1.788-3.998-3.997c0-2.21,1.788-3.998,3.998-3.998h31.978
					c2.21,0,3.998,1.788,3.998,3.998C128.087,86.326,126.299,88.114,124.089,88.114z"/>
			</g>
		</g>
		<g>
			<g>
				<path fill="#3A3847" d="M204.035,88.114h-31.978c-2.209,0-3.997-1.788-3.997-3.997c0-2.21,1.788-3.998,3.997-3.998h31.978
					c2.209,0,3.998,1.788,3.998,3.998C208.033,86.326,206.245,88.114,204.035,88.114z"/>
			</g>
		</g>
		<g>
			<g>
				<path fill="#3A3847" d="M283.98,88.114h-31.974c-2.209,0-3.997-1.788-3.997-3.997c0-2.21,1.788-3.998,3.997-3.998h31.974
					c2.209,0,3.998,1.788,3.998,3.998C287.979,86.326,286.189,88.114,283.98,88.114z"/>
			</g>
		</g>
		<g>
			<g>
				<g>
					<path fill="#3A3847" d="M383.912,463.858c-2.209,0-3.996-1.788-3.996-3.997c0-2.21,1.787-3.998,3.996-3.998
						c66.127,0,119.92-53.791,119.92-119.918c0-2.209,1.787-3.997,3.996-3.997s3.998,1.788,3.998,3.997
						C511.826,406.476,454.443,463.858,383.912,463.858z"/>
				</g>
			</g>
			<g>
				<g>
					<path fill="#3A3847" d="M383.912,463.858C313.383,463.858,256,406.476,256,335.945c0-2.209,1.788-3.997,3.999-3.997
						c2.209,0,3.996,1.788,3.996,3.997c0,66.127,53.791,119.918,119.918,119.918c2.211,0,3.998,1.788,3.998,3.998
						C387.91,462.07,386.123,463.858,383.912,463.858z"/>
				</g>
			</g>
			<g>
				<g>
					<path fill="#3A3847" d="M507.828,339.942c-2.209,0-3.996-1.788-3.996-3.997c0-75.301-48.787-136.79-60.42-150.37
						c-8.611,6.604-33.088,22.484-50.326,5.305c-14.287-14.346-8.979-42.147-4.52-57.5
						c-30.34,20.037-124.572,91.255-124.572,202.565c0,2.209-1.787,3.997-3.996,3.997c-2.211,0-3.999-1.788-3.999-3.997
						c0-136.75,136.579-214.576,137.954-215.346c1.475-0.815,3.318-0.624,4.59,0.488c1.273,1.12,1.703,2.92,1.07,4.489
						c-0.172,0.433-17.105,43.345-0.875,59.646c15.521,15.466,42.205-7.916,42.479-8.158c1.609-1.444,4.092-1.331,5.574,0.254
						c2.656,2.834,65.035,70.44,65.035,158.626C511.826,338.154,510.037,339.942,507.828,339.942z"/>
				</g>
			</g>
		</g>
		<g>
			<g>
				<g>
					<path fill="#3A3847" d="M384.154,248.005c-2.209,0-4.035-1.788-4.035-3.998c0-2.209,1.748-3.997,3.949-3.997h0.086
						c2.203,0,3.998,1.788,3.998,3.997C388.152,246.218,386.357,248.005,384.154,248.005z"/>
				</g>
			</g>
			<g>
				<g>
					<path fill="#3A3847" d="M384.154,431.88c-2.209,0-4.035-1.788-4.035-3.997s1.748-3.997,3.949-3.997h0.086
						c2.203,0,3.998,1.788,3.998,3.997S386.357,431.88,384.154,431.88z"/>
				</g>
			</g>
			<g>
				<g>
					<path fill="#3A3847" d="M338.186,260.325c-2.209,0-4.035-1.788-4.035-3.998s1.748-3.998,3.949-3.998h0.086
						c2.203,0,3.998,1.788,3.998,3.998S340.389,260.325,338.186,260.325z"/>
				</g>
			</g>
			<g>
				<g>
					<path fill="#3A3847" d="M430.123,419.561c-2.209,0-4.035-1.788-4.035-3.998c0-2.209,1.748-3.997,3.949-3.997h0.086
						c2.201,0,3.998,1.788,3.998,3.997C434.121,417.772,432.324,419.561,430.123,419.561z"/>
				</g>
			</g>
			<g>
				<g>
					<path fill="#3A3847" d="M304.521,293.974c-2.209,0-4.037-1.788-4.037-3.997s1.75-3.997,3.951-3.997h0.086
						c2.201,0,3.998,1.788,3.998,3.997S306.723,293.974,304.521,293.974z"/>
				</g>
			</g>
			<g>
				<g>
					<path fill="#3A3847" d="M463.773,385.911c-2.211,0-4.037-1.788-4.037-3.997s1.748-3.997,3.951-3.997h0.086
						c2.201,0,3.996,1.788,3.996,3.997S465.975,385.911,463.773,385.911z"/>
				</g>
			</g>
			<g>
				<g>
					<path fill="#3A3847" d="M292.201,339.942c-2.209,0-4.035-1.788-4.035-3.997s1.748-3.997,3.949-3.997h0.086
						c2.203,0,3.998,1.788,3.998,3.997S294.404,339.942,292.201,339.942z"/>
				</g>
			</g>
			<g>
				<g>
					<path fill="#3A3847" d="M476.076,339.942c-2.209,0-4.035-1.788-4.035-3.997s1.748-3.997,3.949-3.997h0.086
						c2.201,0,3.998,1.788,3.998,3.997S478.277,339.942,476.076,339.942z"/>
				</g>
			</g>
			<g>
				<g>
					<path fill="#3A3847" d="M304.506,385.919c-2.209,0-4.037-1.788-4.037-3.997s1.75-3.997,3.951-3.997h0.086
						c2.201,0,3.998,1.788,3.998,3.997S306.707,385.919,304.506,385.919z"/>
				</g>
			</g>
			<g>
				<g>
					<path fill="#3A3847" d="M463.758,293.974c-2.211,0-4.037-1.788-4.037-3.997s1.748-3.997,3.951-3.997h0.086
						c2.201,0,3.996,1.788,3.996,3.997S465.959,293.974,463.758,293.974z"/>
				</g>
			</g>
			<g>
				<g>
					<path fill="#3A3847" d="M338.17,419.576c-2.209,0-4.035-1.788-4.035-3.998c0-2.209,1.748-3.997,3.949-3.997h0.086
						c2.203,0,3.998,1.788,3.998,3.997C342.168,417.788,340.373,419.576,338.17,419.576z"/>
				</g>
			</g>
			<g>
				<g>
					<path fill="#3A3847" d="M430.107,260.333c-2.209,0-4.035-1.788-4.035-3.998s1.748-3.998,3.949-3.998h0.086
						c2.203,0,3.998,1.788,3.998,3.998S432.311,260.333,430.107,260.333z"/>
				</g>
			</g>
		</g>
		<g>
			<g>
				<path fill="#3A3847" d="M383.912,447.869c-61.715,0-111.924-50.208-111.924-111.924s50.209-111.924,111.924-111.924
					c61.717,0,111.924,50.208,111.924,111.924S445.629,447.869,383.912,447.869z M383.912,232.016
					c-57.305,0-103.928,46.625-103.928,103.929s46.623,103.93,103.928,103.93s103.93-46.625,103.93-103.93
					S441.217,232.016,383.912,232.016z"/>
			</g>
		</g>
		<g>
			<g>
				<path fill="#3A3847" d="M383.912,339.942c-2.209,0-3.996-1.788-3.996-3.997v-67.953c0-2.21,1.787-3.998,3.996-3.998
					c2.211,0,3.998,1.788,3.998,3.998v67.953C387.91,338.154,386.123,339.942,383.912,339.942z"/>
			</g>
		</g>
		<g>
			<g>
				<path fill="#3A3847" d="M427.883,383.912c-1.023,0-2.045-0.39-2.826-1.17l-43.971-43.971c-1.561-1.562-1.561-4.091,0-5.652
					c1.562-1.562,4.092-1.562,5.652,0l43.971,43.971c1.562,1.561,1.562,4.09,0,5.652
					C429.928,383.522,428.906,383.912,427.883,383.912z"/>
			</g>
		</g>
		<g>
			<g>
				<path fill="#3A3847" d="M244.012,311.962h-23.988c-2.209,0-3.998-1.788-3.998-3.997c0-2.21,1.788-3.998,3.998-3.998h23.988
					c2.209,0,3.997,1.788,3.997,3.998C248.009,310.174,246.221,311.962,244.012,311.962z"/>
			</g>
		</g>
		<g>
			<g>
				<path fill="#3A3847" d="M299.971,192.043c-2.211,0-3.998-1.788-3.998-3.998v-7.994c0-2.21,1.787-3.998,3.998-3.998
					c2.209,0,3.996,1.788,3.996,3.998v7.994C303.967,190.256,302.18,192.043,299.971,192.043z"/>
			</g>
		</g>
		<g>
			<g>
				<path fill="#3A3847" d="M275.986,216.027h-7.994c-2.209,0-3.998-1.788-3.998-3.998s1.789-3.998,3.998-3.998h7.994
					c2.209,0,3.998,1.788,3.998,3.998S278.195,216.027,275.986,216.027z"/>
			</g>
		</g>
		<g>
			<g>
				<path fill="#3A3847" d="M252.006,407.896c-2.209,0-3.997-1.788-3.997-3.997V387.91c0-2.209,1.788-3.998,3.997-3.998
					c2.209,0,3.997,1.789,3.997,3.998v15.989C256.003,406.108,254.216,407.896,252.006,407.896z"/>
			</g>
		</g>
		<g>
			<g>
				<path fill="#3A3847" d="M244.012,375.918h-23.988c-2.209,0-3.998-1.787-3.998-3.997s1.788-3.997,3.998-3.997h23.988
					c2.209,0,3.997,1.787,3.997,3.997S246.221,375.918,244.012,375.918z"/>
			</g>
		</g>
	</g>
</g>
</svg>
