<?xml version="1.0" encoding="iso-8859-1"?>
<!-- Generator: Adobe Illustrator 19.0.0, SVG Export Plug-In . SVG Version: 6.00 Build 0)  -->
<svg xmlns="http://www.w3.org/2000/svg" xmlns:xlink="http://www.w3.org/1999/xlink" version="1.1" id="Layer_1" x="0px" y="0px" viewBox="0 0 512.001 512.001" style="enable-background:new 0 0 512.001 512.001;" xml:space="preserve">
<polygon style="fill:#E6E6E6;" points="302.368,291.034 302.368,291.034 255.999,320.828 209.632,291.034 209.632,291.034   187.49,304.32 255.999,498.808 324.51,304.32 "/>
<path style="fill:#4D5560;" d="M498.93,390.003c-1.784-32.489-23.254-59.834-53.61-68.025L335.347,297.06  c-4.335-0.982-8.72,1.424-10.243,5.621L256,498.808l-69.105-196.126c-1.523-4.196-5.909-6.603-10.243-5.621L66.68,321.979  c-30.356,8.19-51.826,35.535-53.61,68.025l-5.02,96.525c-0.347,6.676,4.972,12.28,11.657,12.28h235.237h1.056h1.056h235.237  c6.686,0,12.005-5.604,11.657-12.28L498.93,390.003z"/>
<g>
	<polygon style="fill:#D3CCD6;" points="209.632,291.034 255.999,320.827 204.913,356.034 187.49,304.32  "/>
	<polygon style="fill:#D3CCD6;" points="302.368,291.034 255.999,320.827 307.087,356.034 324.51,304.32  "/>
</g>
<g>
	<polygon style="fill:#FC3F49;" points="256.016,320.827 256.016,320.825 256.014,320.826 256.012,320.825 256.012,320.827    234.22,335.837 245.071,357.457 266.96,357.457 277.754,335.82  "/>
	<polygon style="fill:#FC3F49;" points="266.96,357.457 256.016,357.457 245.071,357.457 234.395,443.581 255.999,498.808    277.628,443.514  "/>
</g>
<g>
	<path style="fill:#3F4651;" d="M176.652,297.06l-35.513,8.047l-8.229,29.422c-1.207,4.317,2.408,8.456,6.848,7.84l14.969-2.076   c4.054-0.562,7.537,2.874,7.03,6.935l-4.126,33.052c-0.216,1.733,0.306,3.478,1.439,4.808l96.931,113.718l-69.105-196.126   C185.371,298.485,180.986,296.078,176.652,297.06z"/>
	<path style="fill:#3F4651;" d="M335.348,297.06l35.513,8.047l8.229,29.422c1.207,4.317-2.408,8.456-6.848,7.84l-14.969-2.076   c-4.054-0.562-7.537,2.874-7.03,6.935l4.126,33.052c0.216,1.733-0.306,3.478-1.44,4.808l-96.929,113.718l69.105-196.126   C326.628,298.485,331.014,296.078,335.348,297.06z"/>
</g>
<path style="fill:#F28F0C;" d="M292.624,13.194h-29.785c39.241,0,71.051,31.811,71.051,71.051v71.892h29.785V84.246  C363.675,45.005,331.864,13.194,292.624,13.194z"/>
<path style="fill:#FFC07B;" d="M347.237,121.501v52.819c11.908-0.785,21.309-9.603,21.309-20.419v-11.976  C368.546,131.108,359.145,122.285,347.237,121.501z"/>
<path style="fill:#FED9A8;" d="M165.664,121.501v52.819c-11.908-0.785-21.309-9.603-21.309-20.419v-11.976  C144.356,131.108,153.755,122.285,165.664,121.501z"/>
<path style="fill:#FE9901;" d="M293.073,13.194h-72.79c-39.241,0-71.051,31.811-71.051,71.051v45.074  c3.885-4.418,9.764-7.381,16.431-7.82v0.047l0,0v-10.421c10.991-14.011,36.183-5.671,88.62-7.687  c39.45-1.517,56.203-22.39,63.076-43.042c4.686,1.808,22.834,11.472,22.834,52.77c0,4.82,3.207,7.252,7.383,8.369  c6.8,0.539,12.741,3.701,16.548,8.347V84.246C364.126,45.005,332.314,13.194,293.073,13.194z"/>
<g>
	<path id="SVGCleanerId_0" style="fill:#FED9A8;" d="M339.743,113.168c0-41.297-18.148-50.962-22.834-52.77   c-6.873,20.651-23.628,41.525-63.076,43.042c-52.437,2.016-77.628-6.324-88.62,7.687v75.838c0,17.83,7.059,34.865,19.501,47.058   l19.075,18.694c9.322,9.136,21.619,14.219,34.395,14.219h36.09c12.776,0,25.074-5.084,34.395-14.219l19.075-18.694   c12.441-12.193,19.501-29.228,19.501-47.058v-65.393C343.01,120.468,339.743,118.033,339.743,113.168z"/>
</g>
<g>
	<path id="SVGCleanerId_0_1_" style="fill:#FED9A8;" d="M339.743,113.168c0-41.297-18.148-50.962-22.834-52.77   c-6.873,20.651-23.628,41.525-63.076,43.042c-52.437,2.016-77.628-6.324-88.62,7.687v75.838c0,17.83,7.059,34.865,19.501,47.058   l19.075,18.694c9.322,9.136,21.619,14.219,34.395,14.219h36.09c12.776,0,25.074-5.084,34.395-14.219l19.075-18.694   c12.441-12.193,19.501-29.228,19.501-47.058v-65.393C343.01,120.468,339.743,118.033,339.743,113.168z"/>
</g>
<g>
	<path id="SVGCleanerId_0_2_" style="fill:#FED9A8;" d="M339.743,113.168c0-41.297-18.148-50.962-22.834-52.77   c-6.873,20.651-23.628,41.525-63.076,43.042c-52.437,2.016-77.628-6.324-88.62,7.687v75.838c0,17.83,7.059,34.865,19.501,47.058   l19.075,18.694c9.322,9.136,21.619,14.219,34.395,14.219h36.09c12.776,0,25.074-5.084,34.395-14.219l19.075-18.694   c12.441-12.193,19.501-29.228,19.501-47.058v-65.393C343.01,120.468,339.743,118.033,339.743,113.168z"/>
</g>
<g>
	<path style="fill:#FFC07B;" d="M253.833,116.606c43.574,0,64.773-28.275,73.2-48.669c-4.181-4.81-8.241-6.813-10.124-7.539   c-6.873,20.651-23.628,41.525-63.076,43.042c-52.437,2.016-77.628-6.324-88.62,7.687v13.167   C176.205,110.282,201.358,116.606,253.833,116.606z"/>
	<path style="fill:#FFC07B;" d="M339.743,113.168c0-39.839-16.885-50.237-22.285-52.545v126.341c0,17.83-7.058,34.865-19.501,47.058   l-19.075,18.694c-9.322,9.136-21.618,14.219-34.395,14.219h29.785c12.776,0,25.074-5.084,34.395-14.219l19.075-18.694   c12.441-12.193,19.501-29.228,19.501-47.058V121.57C343.01,120.468,339.743,118.033,339.743,113.168z"/>
</g>
<path style="fill:#F7C68B;" d="M160.122,161.623h5.092v-27.427h-5.092c-4.487,0-8.124,3.637-8.124,8.124v11.179  C151.997,157.986,155.634,161.623,160.122,161.623z"/>
<path style="fill:#F2AD5A;" d="M352.336,161.623h-5.092v-27.427h5.092c4.487,0,8.124,3.637,8.124,8.124v11.179  C360.461,157.986,356.823,161.623,352.336,161.623z"/>
<path style="fill:#FED9A8;" d="M274.273,266.937h-36.089c-8.931,0-17.624-2.492-25.234-7.109l-3.318,31.206l46.369,29.794  l46.369-29.794l-3.29-30.94C291.572,264.544,283.035,266.937,274.273,266.937z"/>
<path style="fill:#F2C18B;" d="M234.784,266.814c-1.016-0.072-2.028-0.181-3.034-0.317c-0.107-0.015-0.215-0.026-0.322-0.041  c-0.973-0.138-1.938-0.31-2.898-0.507c-0.138-0.028-0.277-0.055-0.416-0.084c-0.934-0.2-1.862-0.431-2.782-0.685  c-0.157-0.044-0.316-0.087-0.472-0.132c-0.902-0.259-1.795-0.546-2.68-0.858c-0.169-0.059-0.338-0.119-0.507-0.181  c-0.872-0.317-1.735-0.66-2.589-1.026c-0.172-0.074-0.344-0.15-0.516-0.226c-0.846-0.375-1.684-0.772-2.51-1.196  c-0.168-0.087-0.334-0.176-0.502-0.263c-0.824-0.434-1.638-0.889-2.439-1.37c-0.058-0.034-0.119-0.064-0.177-0.1l-0.363,3.415  c6.289,8.063,32.119,34.621,88.559,16.287l0,0l-2.067-19.437c-0.002,0.001-0.004,0.002-0.006,0.003  c-0.843,0.499-1.703,0.965-2.571,1.412c-0.226,0.117-0.454,0.228-0.682,0.342c-0.709,0.351-1.426,0.685-2.15,1.003  c-0.195,0.085-0.387,0.175-0.583,0.257c-0.902,0.38-1.813,0.736-2.736,1.061c-0.155,0.055-0.314,0.102-0.47,0.155  c-0.773,0.265-1.553,0.508-2.338,0.733c-0.262,0.075-0.524,0.148-0.787,0.219c-0.798,0.214-1.6,0.408-2.409,0.582  c-0.153,0.033-0.303,0.072-0.456,0.103c-0.949,0.194-1.905,0.355-2.867,0.491c-0.243,0.034-0.488,0.06-0.733,0.091  c-0.748,0.094-1.497,0.171-2.25,0.23c-0.278,0.022-0.556,0.045-0.834,0.062c-0.975,0.06-1.953,0.1-2.934,0.1h-36.09  c-1.07,0-2.137-0.041-3.198-0.111C234.912,266.821,234.848,266.819,234.784,266.814z"/>
<g>
	<path style="fill:#232323;" d="M208.152,162.623c-4.654,0-8.427-3.773-8.427-8.427v-6.753c0-4.654,3.773-8.427,8.427-8.427   s8.427,3.773,8.427,8.427v6.753C216.579,158.85,212.807,162.623,208.152,162.623z"/>
	<path style="fill:#232323;" d="M303.848,162.623c-4.654,0-8.427-3.773-8.427-8.427v-6.753c0-4.654,3.773-8.427,8.427-8.427   c4.654,0,8.427,3.773,8.427,8.427v6.753C312.275,158.85,308.502,162.623,303.848,162.623z"/>
</g>
<path style="fill:#FFF4E9;" d="M256.001,233.319c14.58,0,26.835-8.296,30.325-19.529c1.011-3.254-1.464-6.553-4.871-6.553h-50.907  c-3.408,0-5.883,3.299-4.871,6.553C229.166,225.023,241.419,233.319,256.001,233.319z"/>
<g>
	<path style="fill:#3F4651;" d="M67.194,353.522L48.6,329.744c-20.476,12.378-34.04,34.727-35.443,60.259l-5.02,96.525   c-0.347,6.676,4.972,12.28,11.657,12.28h68.637l3.24-68.382C92.986,402.686,84.3,375.397,67.194,353.522z"/>
	<path style="fill:#3F4651;" d="M444.781,353.522l18.594-23.778c20.476,12.378,34.04,34.727,35.443,60.259l5.02,96.525   c0.347,6.676-4.972,12.28-11.658,12.28h-68.637l-3.24-68.382C418.988,402.687,427.674,375.397,444.781,353.522z"/>
</g>
<polygon style="fill:#EA2F41;" points="245.071,357.457 243.78,367.878 268.251,367.878 266.96,357.457 255.958,357.457 "/>
<g>
	<path style="fill:#373E49;" d="M326.471,300.234c0.04-0.05,0.078-0.101,0.119-0.15C326.55,300.132,326.51,300.184,326.471,300.234z   "/>
	<path style="fill:#373E49;" d="M331.575,297.042c0.131-0.028,0.262-0.055,0.394-0.076   C331.836,296.988,331.706,297.014,331.575,297.042z"/>
	<path style="fill:#373E49;" d="M328.001,298.706c0.055-0.043,0.111-0.081,0.166-0.123   C328.112,298.624,328.056,298.663,328.001,298.706z"/>
	<path style="fill:#373E49;" d="M332.307,296.917c0.139-0.017,0.28-0.031,0.421-0.042   C332.586,296.886,332.446,296.9,332.307,296.917z"/>
	<path style="fill:#373E49;" d="M326.936,299.687c0.048-0.051,0.096-0.103,0.146-0.153   C327.033,299.584,326.983,299.635,326.936,299.687z"/>
	<path style="fill:#373E49;" d="M328.591,298.282c0.042-0.027,0.086-0.051,0.127-0.077   C328.677,298.231,328.633,298.255,328.591,298.282z"/>
	<path style="fill:#373E49;" d="M329.726,297.656c0.031-0.014,0.061-0.032,0.093-0.046   C329.789,297.624,329.759,297.642,329.726,297.656z"/>
	<path style="fill:#373E49;" d="M330.197,297.459c0.105-0.042,0.209-0.085,0.316-0.122   C330.406,297.373,330.302,297.417,330.197,297.459z"/>
	<path style="fill:#373E49;" d="M327.447,299.176c0.054-0.049,0.109-0.096,0.164-0.145   C327.556,299.079,327.501,299.126,327.447,299.176z"/>
	<path style="fill:#373E49;" d="M330.867,297.225c0.121-0.036,0.241-0.073,0.363-0.105   C331.108,297.152,330.988,297.189,330.867,297.225z"/>
	<path style="fill:#373E49;" d="M333.054,296.854c0.15-0.006,0.3-0.005,0.451-0.004   C333.354,296.848,333.204,296.848,333.054,296.854z"/>
	<path style="fill:#373E49;" d="M334.578,296.923c0.256,0.034,0.513,0.079,0.77,0.137   C335.091,297.003,334.834,296.959,334.578,296.923z"/>
	<path style="fill:#373E49;" d="M445.32,321.979l-74.46-16.871l0,0l1.92,6.866l44.157,10.006   c13.972,3.77,26.053,11.605,35.207,22.124l11.228-14.359l0.048-0.039C457.861,326.351,451.795,323.726,445.32,321.979z"/>
	<path style="fill:#373E49;" d="M326.061,300.802c0.027-0.041,0.052-0.082,0.08-0.123   C326.114,300.718,326.088,300.76,326.061,300.802z"/>
	<path style="fill:#373E49;" d="M325.741,301.315L325.741,301.315L325.741,301.315z"/>
	<path style="fill:#373E49;" d="M333.814,296.856c0.169,0.007,0.34,0.025,0.509,0.043   C334.152,296.88,333.983,296.863,333.814,296.856z"/>
</g>
<g>
	<path style="fill:#3F4651;" d="M327.611,299.031c0.127-0.111,0.257-0.222,0.39-0.326   C327.867,298.809,327.738,298.919,327.611,299.031z"/>
	<path style="fill:#3F4651;" d="M326.589,300.083c0.111-0.136,0.227-0.268,0.346-0.396   C326.817,299.815,326.702,299.947,326.589,300.083z"/>
	<path style="fill:#3F4651;" d="M326.142,300.678c0.105-0.153,0.216-0.3,0.329-0.444   C326.358,300.378,326.246,300.525,326.142,300.678z"/>
	<path style="fill:#3F4651;" d="M327.081,299.533c0.119-0.123,0.241-0.242,0.366-0.358   C327.322,299.29,327.201,299.41,327.081,299.533z"/>
	<path style="fill:#3F4651;" d="M325.741,301.315c0.101-0.177,0.209-0.346,0.32-0.513   C325.95,300.969,325.842,301.138,325.741,301.315z"/>
	<path style="fill:#3F4651;" d="M328.168,298.582c0.139-0.103,0.279-0.206,0.423-0.3   C328.446,298.377,328.307,298.479,328.168,298.582z"/>
	<path style="fill:#3F4651;" d="M333.504,296.85c0.103,0.001,0.206,0,0.308,0.005C333.71,296.85,333.608,296.851,333.504,296.85z"/>
	<path style="fill:#3F4651;" d="M328.719,298.205c0.325-0.205,0.661-0.388,1.008-0.549   C329.378,297.816,329.043,298.001,328.719,298.205z"/>
	<path style="fill:#3F4651;" d="M331.969,296.966c0.111-0.018,0.224-0.034,0.337-0.049   C332.193,296.932,332.081,296.948,331.969,296.966z"/>
	<path style="fill:#3F4651;" d="M334.322,296.898c0.086,0.009,0.17,0.014,0.256,0.026   C334.493,296.911,334.408,296.907,334.322,296.898z"/>
	<path style="fill:#3F4651;" d="M332.726,296.875c0.109-0.009,0.217-0.016,0.328-0.021   C332.945,296.858,332.836,296.866,332.726,296.875z"/>
	<path style="fill:#3F4651;" d="M329.82,297.61c0.123-0.056,0.251-0.102,0.377-0.152C330.071,297.508,329.944,297.555,329.82,297.61   z"/>
	<path style="fill:#3F4651;" d="M331.231,297.12c0.113-0.029,0.229-0.054,0.344-0.078   C331.459,297.067,331.345,297.091,331.231,297.12z"/>
	<path style="fill:#3F4651;" d="M330.513,297.337c0.117-0.041,0.236-0.075,0.355-0.111   C330.748,297.261,330.629,297.296,330.513,297.337z"/>
</g>
<path style="fill:#373E49;" d="M335.348,297.06c-0.257-0.058-0.513-0.103-0.77-0.137c-0.086-0.012-0.17-0.016-0.256-0.026  c-0.17-0.018-0.34-0.034-0.509-0.043c-0.103-0.005-0.206-0.004-0.308-0.005c-0.151-0.002-0.301-0.002-0.451,0.004  c-0.109,0.004-0.219,0.013-0.328,0.021c-0.14,0.011-0.281,0.025-0.421,0.042c-0.112,0.014-0.225,0.03-0.337,0.049  c-0.132,0.022-0.263,0.048-0.394,0.076c-0.116,0.025-0.23,0.049-0.344,0.078c-0.122,0.031-0.243,0.069-0.363,0.105  c-0.119,0.036-0.238,0.071-0.355,0.111c-0.107,0.037-0.211,0.08-0.316,0.122c-0.126,0.049-0.254,0.096-0.377,0.152  c-0.032,0.014-0.062,0.031-0.093,0.046c-0.348,0.161-0.684,0.345-1.008,0.549c-0.042,0.027-0.086,0.05-0.127,0.077  c-0.145,0.094-0.284,0.197-0.423,0.3c-0.056,0.041-0.112,0.08-0.166,0.123c-0.134,0.104-0.262,0.214-0.39,0.326  c-0.055,0.048-0.11,0.095-0.164,0.145c-0.125,0.116-0.247,0.235-0.366,0.358c-0.049,0.05-0.097,0.102-0.146,0.153  c-0.119,0.129-0.235,0.26-0.346,0.396c-0.041,0.049-0.079,0.1-0.119,0.15c-0.114,0.145-0.225,0.291-0.329,0.444  c-0.028,0.041-0.054,0.082-0.08,0.123c-0.111,0.167-0.22,0.337-0.32,0.513l0,0l47.04,10.659l-1.92-6.866L335.348,297.06z"/>
<path style="fill:#333A44;" d="M463.374,329.744l-11.228,14.359c10.734,12.335,17.44,28.365,18.403,45.901l5.66,108.804h15.971  c6.686,0,12.005-5.604,11.658-12.28l-5.02-96.525C497.415,364.471,483.851,342.122,463.374,329.744z"/>
<path style="fill:#E6E6E6;" d="M428.315,269.26H83.685c-7.559,0-13.493,7.605-12.836,16.447l13.749,186.485H427.4l13.75-186.486  C441.809,276.864,435.873,269.26,428.315,269.26z"/>
<path style="fill:#CCCCCC;" d="M428.315,269.26h-30.373c7.559,0,13.494,7.605,12.836,16.447l-13.75,186.485H427.4l13.75-186.486  C441.809,276.864,435.873,269.26,428.315,269.26z"/>
<path id="SVGCleanerId_1" style="fill:#CCCCCC;" d="M440.529,472.177H71.471c-3.839,0-6.951,3.113-6.951,6.951v12.729  c0,3.839,3.113,6.951,6.951,6.951h369.059c3.839,0,6.951-3.113,6.951-6.951v-12.729  C447.481,475.289,444.368,472.177,440.529,472.177z"/>
<g>
	<path id="SVGCleanerId_1_1_" style="fill:#CCCCCC;" d="M440.529,472.177H71.471c-3.839,0-6.951,3.113-6.951,6.951v12.729   c0,3.839,3.113,6.951,6.951,6.951h369.059c3.839,0,6.951-3.113,6.951-6.951v-12.729   C447.481,475.289,444.368,472.177,440.529,472.177z"/>
</g>
<path style="fill:#FFFFFF;" d="M265.605,399.058h-19.21c-5.003,0-9.189-4.262-9.672-9.848l-2.747-31.782  c-0.554-6.405,3.934-11.952,9.672-11.952h24.703c5.737,0,10.224,5.546,9.672,11.952l-2.747,31.782  C274.793,394.796,270.608,399.058,265.605,399.058z"/>
<path style="fill:#CCCCCC;" d="M137.885,454.903h-22.918c-2.195,0-3.938,1.805-3.814,3.948l0.769,13.325h30.571l-0.794-13.746  C141.585,456.451,139.912,454.903,137.885,454.903z"/>
<path style="fill:#B3B3B3;" d="M137.195,488.219h-19.972c-2.927,0-5.3-2.372-5.3-5.3v-10.743h30.571v10.743  C142.493,485.847,140.121,488.219,137.195,488.219z"/>
<path style="fill:#CCCCCC;" d="M374.115,454.903h22.918c2.195,0,3.938,1.805,3.814,3.948l-0.769,13.325h-30.571l0.794-13.746  C370.414,456.451,372.088,454.903,374.115,454.903z"/>
<g>
	<path style="fill:#B3B3B3;" d="M374.805,488.219h19.972c2.927,0,5.3-2.372,5.3-5.3v-10.743h-30.571v10.743   C369.507,485.847,371.879,488.219,374.805,488.219z"/>
	<path style="fill:#B3B3B3;" d="M447.381,478.005c-0.538-3.304-3.396-5.829-6.853-5.829h-21.415v26.631h21.415   c3.456,0,6.315-2.524,6.853-5.829V478.005z"/>
</g>
<g>
	<path style="fill:#232323;" d="M255.999,241.352c17.764,0,33.389-10.354,37.998-25.18c1.224-3.943,0.489-8.286-1.965-11.618   c-2.468-3.349-6.422-5.35-10.579-5.35h-50.907c-4.158,0-8.113,2.001-10.58,5.351c-2.454,3.332-3.187,7.676-1.962,11.618   C222.61,230.998,238.235,241.352,255.999,241.352z M276.818,215.27c-3.908,5.981-11.983,10.016-20.818,10.016   s-16.909-4.034-20.817-10.016H276.818z"/>
	<path style="fill:#232323;" d="M511.975,486.111l-5.022-96.548c-1.976-35.988-25.904-66.265-59.538-75.34   c-0.101-0.027-0.202-0.052-0.304-0.075l2.053-27.846c0.516-6.941-1.763-13.697-6.256-18.535c-3.916-4.218-9.098-6.541-14.591-6.541   h-23.915c-4.437,0-8.033,3.597-8.033,8.033c0,4.436,3.596,8.033,8.033,8.033h23.915c1.25,0,2.221,0.765,2.817,1.406   c1.442,1.552,2.191,3.949,2.008,6.417L419.94,464.145h-11.351l0.278-4.831c0.185-3.204-0.977-6.383-3.186-8.723   c-2.232-2.365-5.383-3.721-8.648-3.721h-22.917c-6.278,0-11.477,4.874-11.834,11.096l-0.357,6.177h-211.85l-0.357-6.176   c-0.359-6.223-5.557-11.097-11.834-11.097h-22.918c-3.264,0-6.416,1.356-8.648,3.721c-2.21,2.34-3.371,5.519-3.186,8.724   l0.278,4.828H92.061L78.86,285.109c-0.183-2.462,0.568-4.859,2.008-6.411c0.596-0.642,1.567-1.406,2.817-1.406h287.021   c4.437,0,8.033-3.597,8.033-8.033c0-4.436-3.596-8.033-8.033-8.033h-59.47c1.042-0.889,2.067-1.804,3.056-2.772l19.076-18.694   c13.924-13.646,21.91-32.889,21.91-52.795v-6.002c12.405-3.787,21.31-14.583,21.31-27.062v-11.976   c0-5.594-1.789-10.85-4.879-15.288V84.246c0-43.607-35.477-79.084-79.084-79.084h-72.789c-43.607,0-79.084,35.478-79.084,79.084   v42.392c-3.089,4.438-4.878,9.694-4.878,15.287V153.9c0,12.48,8.905,23.274,21.309,27.062v6.002   c0,19.905,7.986,39.149,21.911,52.795l19.076,18.694c0.989,0.968,2.014,1.884,3.055,2.772H83.684   c-5.493,0-10.675,2.323-14.591,6.541c-4.492,4.839-6.772,11.594-6.256,18.529l2.053,27.851c-0.102,0.024-0.203,0.048-0.304,0.075   c-33.636,9.075-57.562,39.352-59.54,75.362l-1.012,19.446c-0.23,4.43,3.174,8.209,7.605,8.439c0.142,0.007,0.284,0.011,0.424,0.011   c4.245,0,7.792-3.327,8.015-7.615l1.011-19.423c1.541-28.076,19.496-51.807,45.008-59.923l9.853,133.623h-4.48   c-8.262,0-14.984,6.722-14.984,14.984v11.647h-36.78c-1.36,0-2.237-0.71-2.64-1.134c-0.402-0.424-1.066-1.337-0.995-2.696   l2.241-43.074c0.23-4.431-3.175-8.21-7.605-8.439c-4.431-0.236-8.21,3.174-8.439,7.605l-2.241,43.074   c-0.28,5.372,1.684,10.69,5.387,14.592c3.704,3.901,8.912,6.138,14.291,6.138H71.47h184.529h184.529h51.765   c5.379,0,10.59-2.237,14.293-6.138C510.289,496.8,512.253,491.483,511.975,486.111z M360.52,153.9c0,3.731-2.031,7.127-5.244,9.425   v-30.473c0.81,0.631,1.544,1.341,2.185,2.123c0.419,0.512,0.895,0.955,1.41,1.34c1.044,1.695,1.648,3.601,1.648,5.61V153.9H360.52z    M156.815,84.246c0-34.749,28.271-63.018,63.018-63.018h72.789c34.748,0,63.018,28.271,63.018,63.018v30.729   c-2.281-0.726-4.682-1.212-7.172-1.429c-0.124-0.046-0.238-0.091-0.332-0.133c-0.016-0.006-0.032-0.014-0.047-0.02   c-0.134-0.061-0.239-0.117-0.314-0.161c-0.001-0.02-0.001-0.042-0.001-0.064c0-45.906-21.413-57.734-27.975-60.265   c-2.048-0.789-4.33-0.708-6.317,0.229c-1.986,0.936-3.502,2.646-4.195,4.729c-7.922,23.799-26.681,36.433-55.763,37.551   c-5.757,0.222-11.458,0.329-17.429,0.329c-10.044,0-18.866-0.311-26.649-0.584c-5.461-0.192-10.272-0.361-14.699-0.401   c-0.633-0.005-1.257-0.009-1.875-0.009c-12.105,0-25.712,0.883-33.979,11.42c-1.11,1.415-1.713,3.161-1.713,4.958v3.727   c-0.122,0.037-0.244,0.075-0.365,0.114v-30.72H156.815z M151.938,153.9v-11.976c0-2.762,1.117-5.337,2.997-7.424   c0.122-0.136,0.255-0.262,0.383-0.393c0.201-0.206,0.403-0.412,0.62-0.607c0.139-0.125,0.288-0.241,0.433-0.361   c0.225-0.186,0.45-0.373,0.688-0.546c0.04-0.029,0.082-0.055,0.122-0.084v30.815C153.969,161.026,151.938,157.63,151.938,153.9z    M190.337,228.285c-10.861-10.644-17.09-25.706-17.09-41.322v-12.645v-52.773v-0.047v-7.108c3.367-2.578,9.13-3.578,19.625-3.578   c4.66,0,9.918,0.185,16.008,0.4c7.915,0.278,16.888,0.594,27.216,0.593c6.181,0,12.084-0.111,18.046-0.341   c38.519-1.481,57.267-20.133,66.371-38.685c5.075,5.608,11.197,17.183,11.197,40.386c0,0.442,0.021,0.876,0.053,1.307   c0.009,0.122,0.021,0.243,0.032,0.364c0.031,0.33,0.071,0.655,0.12,0.977c0.016,0.106,0.03,0.213,0.048,0.318   c0.073,0.42,0.156,0.833,0.26,1.239c0.005,0.02,0.012,0.039,0.017,0.059c0.1,0.386,0.216,0.763,0.343,1.135   c0.031,0.092,0.064,0.182,0.097,0.273c0.119,0.33,0.249,0.653,0.39,0.971c0.027,0.061,0.051,0.122,0.079,0.182   c0.176,0.385,0.366,0.762,0.573,1.129c0.011,0.019,0.024,0.037,0.034,0.057c0.193,0.34,0.402,0.669,0.62,0.992   c0.045,0.066,0.09,0.132,0.136,0.197c0.22,0.313,0.449,0.619,0.692,0.916c0.02,0.025,0.039,0.05,0.059,0.075   c0.275,0.331,0.564,0.652,0.87,0.963c0.029,0.029,0.059,0.057,0.089,0.086c0.269,0.27,0.551,0.531,0.842,0.786   c0.062,0.055,0.124,0.108,0.187,0.162c0.317,0.268,0.644,0.529,0.985,0.778c0.009,0.006,0.016,0.013,0.025,0.018   c0.307,0.223,0.623,0.439,0.95,0.646v47.52v12.645c0,15.616-6.228,30.677-17.09,41.322l-19.076,18.694   c-7.845,7.689-18.063,11.924-28.771,11.924h-36.091c-10.709,0-20.926-4.235-28.772-11.924L190.337,228.285z M392.565,462.936   l-0.508,8.776c-0.009,0.144-0.012,0.299-0.013,0.443c0,0.006-0.001,0.013-0.001,0.019v8.009h-14.504v-7.777l0.547-9.473h14.479   V462.936z M133.913,462.936l0.547,9.473v7.777h-14.504v-8.009c0-0.155-0.004-0.31-0.014-0.464l-0.507-8.776L133.913,462.936   L133.913,462.936z M72.552,490.775V480.21h11.73c0.106,0.004,0.209,0.015,0.316,0.015h19.29v2.695c0,2.935,0.953,5.651,2.565,7.855   H72.552z M255.999,490.775H147.961c1.613-2.204,2.566-4.92,2.566-7.855v-2.695h210.948v2.695c0,2.935,0.953,5.651,2.566,7.855   H255.999z M405.544,490.775c1.613-2.204,2.566-4.92,2.566-7.855v-2.695h19.291c0.106,0,0.21-0.011,0.316-0.015h11.73v10.565   H405.544z M494.934,489.64c-0.403,0.424-1.28,1.134-2.641,1.134h-36.78v-11.647c0-8.262-6.722-14.984-14.984-14.984h-4.48   l9.853-133.623c25.513,8.115,43.466,31.846,45.007,59.899l5.021,96.525C496,488.304,495.336,489.216,494.934,489.64z"/>
	<path style="fill:#232323;" d="M243.649,337.443c-4.821,0-9.327,2.018-12.688,5.682c-3.649,3.978-5.467,9.443-4.987,14.995   l2.747,31.782c0.847,9.799,8.445,17.19,17.674,17.19h19.21c9.228,0,16.826-7.389,17.674-17.19l2.747-31.783   c0.479-5.552-1.339-11.017-4.987-14.995c-3.361-3.664-7.867-5.682-12.688-5.682h-24.702V337.443z M270.02,356.736l-2.746,31.782   c-0.135,1.554-1.063,2.507-1.669,2.507h-19.21c-0.606,0-1.534-0.954-1.668-2.507l-2.747-31.782   c-0.092-1.064,0.214-2.092,0.819-2.75c0.199-0.217,0.509-0.477,0.848-0.477h24.703c0.34,0,0.649,0.259,0.848,0.476   C269.804,354.644,270.111,355.672,270.02,356.736z"/>
</g>
<g>
</g>
<g>
</g>
<g>
</g>
<g>
</g>
<g>
</g>
<g>
</g>
<g>
</g>
<g>
</g>
<g>
</g>
<g>
</g>
<g>
</g>
<g>
</g>
<g>
</g>
<g>
</g>
<g>
</g>
</svg>
