<?xml version="1.0" encoding="utf-8"?>
<!-- Generator: Adobe Illustrator 16.0.0, SVG Export Plug-In . SVG Version: 6.00 Build 0)  -->
<!DOCTYPE svg PUBLIC "-//W3C//DTD SVG 1.1//EN" "http://www.w3.org/Graphics/SVG/1.1/DTD/svg11.dtd">
<svg version="1.1" id="icons" xmlns="http://www.w3.org/2000/svg" xmlns:xlink="http://www.w3.org/1999/xlink" x="0px" y="0px"
	 width="64px" height="64px" viewBox="0 0 64 64" enable-background="new 0 0 64 64" xml:space="preserve">
<g>
	<rect x="1.02" y="10" fill="#545C66" width="2.99" height="48"/>
	<path fill="#CCD1D9" d="M62.99,10H32H4.01H1.02H1V8c0-1.11,0.9-2,2-2h57.99c1.1,0,2,0.89,2,2V10z"/>
	<polygon fill="#656D78" points="32,38 32,58 4.01,58 4.01,10 32,10 32,14 32,22 32,26 32,30 32,34 	"/>
	
		<rect x="4" y="7.999" fill="none" stroke="#000000" stroke-width="2" stroke-linecap="round" stroke-linejoin="round" stroke-miterlimit="10" width="0" height="0"/>
	
		<rect x="7" y="7.999" fill="none" stroke="#000000" stroke-width="2" stroke-linecap="round" stroke-linejoin="round" stroke-miterlimit="10" width="0" height="0"/>
	
		<rect x="10" y="7.999" fill="none" stroke="#000000" stroke-width="2" stroke-linecap="round" stroke-linejoin="round" stroke-miterlimit="10" width="0" height="0"/>
	<g>
		<g>
			<path fill="#5D9CEC" d="M27.006,14.995H8.004c-0.553,0-1-0.447-1-1s0.447-1,1-1h19.002c0.553,0,1,0.447,1,1
				S27.559,14.995,27.006,14.995z"/>
		</g>
		<g>
			<path fill="#A0D468" d="M29.004,18.995h-19c-0.553,0-1-0.447-1-1s0.447-1,1-1h19c0.553,0,1,0.447,1,1
				S29.557,18.995,29.004,18.995z"/>
		</g>
		<g>
			<path fill="#A0D468" d="M24.008,51.019H10.004c-0.553,0-1-0.447-1-1s0.447-1,1-1h14.004c0.553,0,1,0.447,1,1
				S24.561,51.019,24.008,51.019z"/>
		</g>
		<g>
			<path fill="#5D9CEC" d="M14.004,55.007h-6c-0.553,0-1-0.447-1-1s0.447-1,1-1h6c0.553,0,1,0.447,1,1S14.557,55.007,14.004,55.007z
				"/>
		</g>
		<g>
			<path fill="#ED5565" d="M16.004,22.995h-4c-0.553,0-1-0.447-1-1s0.447-1,1-1h4c0.553,0,1,0.447,1,1S16.557,22.995,16.004,22.995z
				"/>
		</g>
		<g>
			<path fill="#ED5565" d="M31.996,22.995H20.004c-0.553,0-1-0.447-1-1s0.447-1,1-1h11.992c0.553,0,1,0.447,1,1
				S32.549,22.995,31.996,22.995z"/>
		</g>
		<g>
			<path fill="#FFCE54" d="M32.002,26.995H14.006c-0.553,0-1-0.447-1-1s0.447-1,1-1h17.996c0.553,0,1,0.447,1,1
				S32.555,26.995,32.002,26.995z"/>
		</g>
		<g>
			<path fill="#CCD1D9" d="M25.006,30.995h-11c-0.553,0-1-0.447-1-1s0.447-1,1-1h11c0.553,0,1,0.447,1,1
				S25.559,30.995,25.006,30.995z"/>
		</g>
		<g>
			<path fill="#CCD1D9" d="M32.012,39.003H14.006c-0.553,0-1-0.447-1-1s0.447-1,1-1h18.006c0.553,0,1,0.447,1,1
				S32.564,39.003,32.012,39.003z"/>
		</g>
		<g>
			<path fill="#FFCE54" d="M27.006,42.996h-13c-0.553,0-1-0.447-1-1s0.447-1,1-1h13c0.553,0,1,0.447,1,1
				S27.559,42.996,27.006,42.996z"/>
		</g>
		<g>
			<path fill="#CCD1D9" d="M32.002,34.995H21.006c-0.553,0-1-0.447-1-1s0.447-1,1-1h10.996c0.553,0,1,0.447,1,1
				S32.555,34.995,32.002,34.995z"/>
		</g>
		<g>
			<path fill="#CCD1D9" d="M17.006,34.995h-3c-0.553,0-1-0.447-1-1s0.447-1,1-1h3c0.553,0,1,0.447,1,1S17.559,34.995,17.006,34.995z
				"/>
		</g>
		<g>
			<path fill="#ED5565" d="M21.01,47.007h-9.006c-0.553,0-1-0.447-1-1s0.447-1,1-1h9.006c0.553,0,1,0.447,1,1
				S21.563,47.007,21.01,47.007z"/>
		</g>
	</g>
	<path fill="#E6E9ED" d="M32,10h30.99H63v48H32V10z"/>
	<path fill="#5D9CEC" d="M58.992,33.998h-23c-0.553,0-1,0.447-1,1v10.998c0,0.553,0.447,1,1,1h23c0.553,0,1-0.447,1-1V34.998
		C59.992,34.445,59.545,33.998,58.992,33.998z"/>
	<path fill="#5D9CEC" d="M59.992,29.996C59.992,29.995,59.992,29.995,59.992,29.996V13.995c0-0.553-0.447-1-1-1H32v2V22v4v2.996v2
		h26.992C59.545,30.996,59.992,30.549,59.992,29.996z"/>
	<path fill="#656D78" d="M58.266,30.996L49.773,20.37c-0.026-0.032-0.063-0.049-0.092-0.077c-0.025-0.025-0.039-0.058-0.067-0.08
		c-0.022-0.018-0.05-0.022-0.073-0.038c-0.061-0.04-0.121-0.07-0.188-0.096c-0.057-0.023-0.111-0.043-0.17-0.054
		c-0.065-0.013-0.128-0.016-0.194-0.016c-0.063,0-0.123,0.003-0.186,0.015c-0.061,0.012-0.117,0.032-0.176,0.056
		c-0.065,0.025-0.126,0.056-0.186,0.095c-0.023,0.016-0.051,0.021-0.073,0.038c-0.028,0.022-0.042,0.055-0.067,0.08
		c-0.029,0.028-0.065,0.045-0.092,0.077l-8.49,10.626H58.266z"/>
	<g>
		<path fill="#CCD1D9" d="M58.992,50.997h-23c-0.553,0-1-0.447-1-1s0.447-1,1-1h23c0.553,0,1,0.447,1,1S59.545,50.997,58.992,50.997
			z"/>
	</g>
	<g>
		<path fill="#CCD1D9" d="M47.98,54.997H35.992c-0.553,0-1-0.447-1-1s0.447-1,1-1H47.98c0.553,0,1,0.447,1,1
			S48.533,54.997,47.98,54.997z"/>
	</g>
	<path fill="#656D78" d="M58.22,46.996l-5.414-7.581c-0.033-0.046-0.08-0.072-0.119-0.111s-0.066-0.088-0.113-0.121
		c-0.01-0.007-0.021-0.008-0.032-0.015c-0.061-0.04-0.128-0.062-0.195-0.088c-0.055-0.021-0.106-0.05-0.163-0.061
		c-0.065-0.013-0.131-0.006-0.198-0.006c-0.061,0.001-0.12-0.006-0.18,0.005c-0.061,0.012-0.115,0.042-0.173,0.064
		c-0.064,0.025-0.13,0.046-0.188,0.085c-0.01,0.007-0.022,0.008-0.032,0.015c-0.047,0.033-0.074,0.082-0.114,0.122
		c-0.038,0.038-0.086,0.064-0.118,0.11l-5.414,7.581H58.22z"/>
	<g>
		<path fill="#FFCE54" d="M40.025,39.494c-0.827,0-1.504-0.669-1.504-1.496s0.662-1.496,1.488-1.496h0.016
			c0.826,0,1.496,0.669,1.496,1.496S40.852,39.494,40.025,39.494z"/>
	</g>
	<path fill="#545C66" d="M47.312,41.424c-0.035-0.05-0.085-0.079-0.126-0.121c-0.042-0.041-0.07-0.091-0.12-0.125
		c-0.007-0.005-0.015-0.005-0.022-0.01c-0.065-0.044-0.139-0.065-0.212-0.093c-0.05-0.018-0.097-0.047-0.147-0.057
		c-0.063-0.012-0.127-0.003-0.191-0.003s-0.128-0.009-0.19,0.003c-0.052,0.01-0.099,0.039-0.148,0.057
		c-0.073,0.027-0.146,0.049-0.212,0.093c-0.008,0.005-0.016,0.005-0.022,0.01c-0.05,0.034-0.079,0.085-0.12,0.126
		s-0.092,0.07-0.126,0.12l-3.9,5.572h3.992l2.751-3.852L47.312,41.424z"/>
	<path fill="#545C66" d="M42.643,23.234c-0.029-0.024-0.065-0.032-0.096-0.054c-0.062-0.041-0.121-0.079-0.188-0.105
		c-0.058-0.023-0.114-0.036-0.174-0.048c-0.063-0.013-0.125-0.022-0.19-0.022c-0.066,0-0.128,0.01-0.193,0.022
		c-0.06,0.012-0.115,0.025-0.173,0.048c-0.065,0.025-0.123,0.062-0.183,0.102c-0.033,0.021-0.07,0.03-0.102,0.057
		c-0.02,0.017-0.028,0.041-0.047,0.06c-0.02,0.02-0.045,0.028-0.063,0.05l-6.561,7.653h5.046l4.629-5.793l-1.594-1.86
		c-0.02-0.023-0.047-0.033-0.068-0.054C42.669,23.272,42.661,23.25,42.643,23.234z"/>
</g>
</svg>
