<svg xmlns="http://www.w3.org/2000/svg" viewBox="0 0 48 48"><title>21-web designer</title><g id="_21-web_designer" data-name="21-web designer"><path d="M43,48H5a5.006,5.006,0,0,1-5-5,1,1,0,0,1,1-1H47a1,1,0,0,1,1,1A5.006,5.006,0,0,1,43,48ZM2.171,44A3.006,3.006,0,0,0,5,46H43a3.006,3.006,0,0,0,2.829-2Z"/><rect x="19" y="43" width="10" height="2"/><path d="M46,43H44V14a1,1,0,0,0-1-1H39V11h4a3,3,0,0,1,3,3Z"/><path d="M4,43H2V14a3,3,0,0,1,3-3H9v2H5a1,1,0,0,0-1,1Z"/><rect x="6" y="36" width="37" height="2"/><path d="M10,37H8V3a3,3,0,0,1,3-3H37a3,3,0,0,1,3,3V6H38V3a1,1,0,0,0-1-1H11a1,1,0,0,0-1,1Z"/><rect x="9" y="8" width="27" height="2"/><path d="M26.648,25.176a1,1,0,0,1-.707-.293L23.117,22.06a1,1,0,0,1,0-1.414L42.884.878a3.068,3.068,0,0,1,4.239,0,3,3,0,0,1,0,4.238L27.355,24.883A1,1,0,0,1,26.648,25.176Zm-1.41-3.823,1.41,1.409L45.708,3.7a1,1,0,0,0,0-1.41,1.019,1.019,0,0,0-1.409,0Z"/><path d="M21,28a1,1,0,0,1-.895-1.447l2.824-5.648,1.789.895-1.482,2.964L26.2,23.281,27.1,25.07,21.447,27.9A1,1,0,0,1,21,28Z"/><rect x="38.356" y="6.648" width="2" height="3.994" transform="translate(5.414 30.36) rotate(-45)"/><rect x="38" y="12" width="2" height="25"/><rect x="12" y="4" width="2" height="2"/><rect x="16" y="4" width="2" height="2"/><rect x="20" y="4" width="2" height="2"/><path d="M17,22a5,5,0,1,1,5-5A5.006,5.006,0,0,1,17,22Zm0-8a3,3,0,1,0,3,3A3,3,0,0,0,17,14Z"/><rect x="20.501" y="18.378" width="2" height="4.244" transform="translate(-8.199 21.208) rotate(-45)"/><path d="M32,32H17a1,1,0,0,1-1-1V21h2v9H29.586l-4.295-4.3,1.414-1.414,6,6A1,1,0,0,1,32,32Z"/><rect x="34" y="30" width="2" height="2"/><rect x="12" y="30" width="2" height="2"/></g></svg>