<?xml version="1.0" encoding="utf-8"?>
<!-- Generator: Adobe Illustrator 16.0.0, SVG Export Plug-In . SVG Version: 6.00 Build 0)  -->
<!DOCTYPE svg PUBLIC "-//W3C//DTD SVG 1.1//EN" "http://www.w3.org/Graphics/SVG/1.1/DTD/svg11.dtd">
<svg version="1.1" id="icons" xmlns="http://www.w3.org/2000/svg" xmlns:xlink="http://www.w3.org/1999/xlink" x="0px" y="0px"
	 width="64px" height="64px" viewBox="0 0 64 64" enable-background="new 0 0 64 64" xml:space="preserve">
<g>
	<g>
		<path fill="#F6BB42" d="M61.006,49.505c-0.553,0-1-0.447-1-1v-6.01c0-0.553,0.447-1,1-1s1,0.447,1,1v6.01
			C62.006,49.058,61.559,49.505,61.006,49.505z"/>
	</g>
	<path fill="#545C66" d="M47.994,58.35V45.761c0-0.553-0.447-1-1-1s-1,0.447-1,1v0.241l-15,3.497l-14.99-3.497v-0.239
		c0-0.553-0.447-1-1-1s-1,0.447-1,1v12.626c-0.003,0.033-0.02,0.063-0.02,0.097c0,2.214,1.802,4.016,4.016,4.016
		c0.021,0,0.038-0.011,0.059-0.012h25.889c0.021,0.001,0.038,0.012,0.059,0.012c2.214,0,4.016-1.802,4.016-4.016
		C48.021,58.438,48.001,58.396,47.994,58.35z"/>
	<path fill="#ED5565" d="M44.994,15.499c0,6.98-5.119,12.76-11.81,13.81l-2.19,2.19l-2.18-2.19c-6.689-1.05-11.82-6.829-11.82-13.81
		c0-7.73,6.271-14,14-14C38.734,1.499,44.994,7.769,44.994,15.499z"/>
	<path fill="#656D78" d="M61.218,41.521L31.22,34.52c-0.15-0.035-0.305-0.035-0.455,0L0.78,41.521
		c-0.452,0.105-0.772,0.509-0.772,0.974s0.32,0.868,0.772,0.974l29.984,7c0.075,0.018,0.151,0.026,0.228,0.026
		s0.152-0.009,0.228-0.026l29.998-7c0.452-0.105,0.772-0.509,0.772-0.974S61.67,41.627,61.218,41.521z"/>
	<path fill="#FFCE54" d="M63.939,55.766c0.019-0.066,0.036-0.13,0.04-0.2c0.002-0.021,0.013-0.039,0.013-0.061
		c0-0.049-0.021-0.09-0.027-0.137c-0.007-0.046,0.002-0.091-0.011-0.137l-1.986-7c-0.011-0.037-0.036-0.063-0.05-0.098
		c-0.026-0.064-0.055-0.124-0.094-0.182c-0.036-0.054-0.076-0.1-0.122-0.144c-0.044-0.045-0.089-0.085-0.143-0.121
		c-0.058-0.039-0.117-0.067-0.182-0.094c-0.034-0.015-0.061-0.04-0.098-0.051c-0.024-0.007-0.049-0.001-0.073-0.006
		c-0.068-0.014-0.137-0.016-0.208-0.015c-0.063,0-0.122,0.002-0.183,0.014c-0.028,0.006-0.056-0.001-0.084,0.007
		c-0.041,0.012-0.07,0.04-0.109,0.056c-0.057,0.024-0.11,0.05-0.162,0.084c-0.058,0.039-0.107,0.081-0.156,0.13
		c-0.042,0.043-0.08,0.086-0.114,0.137c-0.04,0.058-0.068,0.118-0.096,0.183c-0.014,0.035-0.04,0.062-0.051,0.099l-1.998,7
		c-0.014,0.047-0.005,0.093-0.011,0.141c-0.007,0.046-0.027,0.086-0.027,0.134c0,0.021,0.011,0.038,0.012,0.059
		c0.005,0.071,0.022,0.137,0.041,0.204c0.017,0.06,0.029,0.118,0.057,0.172c0.028,0.058,0.066,0.105,0.105,0.156
		c0.039,0.052,0.074,0.104,0.123,0.146c0.045,0.041,0.098,0.069,0.15,0.102c0.06,0.036,0.116,0.071,0.183,0.095
		c0.02,0.007,0.034,0.022,0.055,0.028c0.091,0.025,0.182,0.037,0.272,0.038c0.001,0,0.001,0,0.002,0h3.984c0.001,0,0.001,0,0.002,0
		c0.09-0.001,0.181-0.012,0.271-0.038c0.021-0.006,0.035-0.021,0.055-0.028c0.066-0.023,0.123-0.058,0.183-0.094
		c0.053-0.032,0.106-0.062,0.151-0.103c0.048-0.043,0.084-0.093,0.122-0.145c0.039-0.052,0.078-0.1,0.106-0.157
		C63.909,55.886,63.923,55.826,63.939,55.766z"/>
	<g>
		<path fill="#434A54" d="M43.008,58.507h-24c-0.553,0-1-0.447-1-1s0.447-1,1-1h24c0.553,0,1,0.447,1,1S43.561,58.507,43.008,58.507
			z"/>
	</g>
	<g>
		<g>
			<g>
				<path fill="#DA4453" d="M22.987,16.491c-0.256,0-0.512-0.098-0.707-0.293c-0.391-0.391-0.391-1.023,0-1.414l3-3
					c0.391-0.391,1.023-0.391,1.414,0s0.391,1.023,0,1.414l-3,3C23.499,16.394,23.243,16.491,22.987,16.491z"/>
			</g>
			<g>
				<path fill="#DA4453" d="M25.987,19.491c-0.256,0-0.512-0.098-0.707-0.293l-3-3c-0.391-0.391-0.391-1.023,0-1.414
					s1.023-0.391,1.414,0l3,3c0.391,0.391,0.391,1.023,0,1.414C26.499,19.394,26.243,19.491,25.987,19.491z"/>
			</g>
			<g>
				<path fill="#DA4453" d="M38.994,16.491c-0.256,0-0.512-0.098-0.707-0.293l-3-3c-0.391-0.391-0.391-1.023,0-1.414
					s1.023-0.391,1.414,0l3,3c0.391,0.391,0.391,1.023,0,1.414C39.506,16.394,39.25,16.491,38.994,16.491z"/>
			</g>
			<g>
				<path fill="#DA4453" d="M35.994,19.491c-0.256,0-0.512-0.098-0.707-0.293c-0.391-0.391-0.391-1.023,0-1.414l3-3
					c0.391-0.391,1.023-0.391,1.414,0s0.391,1.023,0,1.414l-3,3C36.506,19.394,36.25,19.491,35.994,19.491z"/>
			</g>
			<g>
				<path fill="#DA4453" d="M28.989,21.493c-0.124,0-0.25-0.022-0.371-0.071c-0.513-0.205-0.763-0.787-0.558-1.3l4.001-10.004
					c0.205-0.515,0.79-0.762,1.3-0.558c0.513,0.205,0.763,0.787,0.558,1.3l-4.001,10.004C29.762,21.256,29.386,21.493,28.989,21.493
					z"/>
			</g>
		</g>
	</g>
</g>
</svg>
